<?xml version="1.0" encoding="UTF-8"?>
<!DOCTYPE svg PUBLIC "-//W3C//DTD SVG 1.1//EN" "http://www.w3.org/Graphics/SVG/1.1/DTD/svg11.dtd">
<svg xmlns="http://www.w3.org/2000/svg" version="1.1" width="100px" height="100px" style="shape-rendering:geometricPrecision; text-rendering:geometricPrecision; image-rendering:optimizeQuality; fill-rule:evenodd; clip-rule:evenodd" xmlns:xlink="http://www.w3.org/1999/xlink">
<g><path style="opacity:1" fill="#fdfefe" d="M -0.5,-0.5 C 32.8333,-0.5 66.1667,-0.5 99.5,-0.5C 99.5,32.8333 99.5,66.1667 99.5,99.5C 66.1667,99.5 32.8333,99.5 -0.5,99.5C -0.5,66.1667 -0.5,32.8333 -0.5,-0.5 Z"/></g>
<g><path style="opacity:1" fill="#aa7dd6" d="M 83.5,26.5 C 82.2921,25.7659 80.9587,25.4326 79.5,25.5C 79.4701,24.5028 79.9701,23.8361 81,23.5C 82.7491,23.7483 83.5824,24.7483 83.5,26.5 Z"/></g>
<g><path style="opacity:1" fill="#be9ce2" d="M 68.5,30.5 C 68.1667,30.5 67.8333,30.5 67.5,30.5C 67.5,30.1667 67.5,29.8333 67.5,29.5C 65.6772,27.9743 63.8438,26.3076 62,24.5C 61.6174,25.056 61.1174,25.3893 60.5,25.5C 62.2316,22.8879 63.7316,23.2213 65,26.5C 65.7175,25.5494 66.5509,25.3828 67.5,26C 68.3802,27.3561 68.7135,28.8561 68.5,30.5 Z"/></g>
<g><path style="opacity:1" fill="#d09eed" d="M 79.5,25.5 C 79.5,26.1667 79.5,26.8333 79.5,27.5C 79.5,27.8333 79.5,28.1667 79.5,28.5C 78.1667,28.1667 76.8333,27.8333 75.5,27.5C 75.3691,26.6236 75.7025,25.9569 76.5,25.5C 77.5272,26.7914 78.5272,26.7914 79.5,25.5 Z"/></g>
<g><path style="opacity:1" fill="#b892d1" d="M 86.5,28.5 C 85.2905,28.0679 84.2905,27.4013 83.5,26.5C 85.3678,25.3264 86.3678,25.9931 86.5,28.5 Z"/></g>
<g><path style="opacity:1" fill="#a15dda" d="M 67.5,29.5 C 65.2776,29.822 63.4443,29.1554 62,27.5C 56.9125,31.9321 56.0792,37.2654 59.5,43.5C 58.5041,43.5858 57.6708,43.2524 57,42.5C 56.5045,40.5273 56.3379,38.5273 56.5,36.5C 56.5,34.8333 56.5,33.1667 56.5,31.5C 56.5,29.8333 56.5,28.1667 56.5,26.5C 58.099,26.7678 59.4324,26.4345 60.5,25.5C 61.1174,25.3893 61.6174,25.056 62,24.5C 63.8438,26.3076 65.6772,27.9743 67.5,29.5 Z"/></g>
<g><path style="opacity:1" fill="#b182dd" d="M 56.5,31.5 C 56.5,33.1667 56.5,34.8333 56.5,36.5C 55.609,37.1098 54.609,37.4431 53.5,37.5C 53.1924,35.076 53.5258,32.7427 54.5,30.5C 55.1835,30.8627 55.8501,31.1961 56.5,31.5 Z"/></g>
<g><path style="opacity:1" fill="#9a50d4" d="M 79.5,25.5 C 80.9587,25.4326 82.2921,25.7659 83.5,26.5C 84.2905,27.4013 85.2905,28.0679 86.5,28.5C 86.5,29.5 86.5,30.5 86.5,31.5C 86.5,34.1667 86.5,36.8333 86.5,39.5C 86.5,39.8333 86.5,40.1667 86.5,40.5C 86.1667,40.5 85.8333,40.5 85.5,40.5C 85.6653,36.8183 85.4986,33.1516 85,29.5C 83.4157,28.1387 81.5824,27.472 79.5,27.5C 79.5,26.8333 79.5,26.1667 79.5,25.5 Z"/></g>
<g><path style="opacity:1" fill="#9f35f9" d="M 67.5,29.5 C 67.5,29.8333 67.5,30.1667 67.5,30.5C 67.1091,33.838 68.2757,34.838 71,33.5C 72.2853,33.9504 73.452,34.6171 74.5,35.5C 75.1667,33.5 75.8333,31.5 76.5,29.5C 78.2249,31.0916 79.2249,30.7583 79.5,28.5C 79.5,28.1667 79.5,27.8333 79.5,27.5C 81.5824,27.472 83.4157,28.1387 85,29.5C 85.4986,33.1516 85.6653,36.8183 85.5,40.5C 84.8333,41.8333 83.8333,42.8333 82.5,43.5C 81.8423,44.3984 81.1757,45.3984 80.5,46.5C 78.7751,44.9084 77.7751,45.2417 77.5,47.5C 74.1585,49.4614 70.4919,49.9614 66.5,49C 65.8971,47.1746 65.2304,45.3413 64.5,43.5C 62.9974,44.0522 61.3307,44.0522 59.5,43.5C 56.0792,37.2654 56.9125,31.9321 62,27.5C 63.4443,29.1554 65.2776,29.822 67.5,29.5 Z"/></g>
<g><path style="opacity:1" fill="#a657e5" d="M 75.5,27.5 C 76.8333,27.8333 78.1667,28.1667 79.5,28.5C 79.2249,30.7583 78.2249,31.0916 76.5,29.5C 75.8333,31.5 75.1667,33.5 74.5,35.5C 73.452,34.6171 72.2853,33.9504 71,33.5C 68.2757,34.838 67.1091,33.838 67.5,30.5C 67.8333,30.5 68.1667,30.5 68.5,30.5C 68.5827,32.5695 69.5827,32.9028 71.5,31.5C 72.6473,31.8178 73.4806,32.4844 74,33.5C 74.3153,31.4144 74.8153,29.4144 75.5,27.5 Z"/></g>
<g><path style="opacity:1" fill="#9461cd" d="M 89.5,35.5 C 88.8826,35.6107 88.3826,35.944 88,36.5C 87.5065,34.8659 87.3398,33.1992 87.5,31.5C 87.81,30.2617 88.31,30.2617 89,31.5C 89.49,32.7932 89.6567,34.1266 89.5,35.5 Z"/></g>
<g><path style="opacity:1" fill="#e1acf3" d="M 86.5,31.5 C 86.8333,31.5 87.1667,31.5 87.5,31.5C 87.3398,33.1992 87.5065,34.8659 88,36.5C 88.3826,35.944 88.8826,35.6107 89.5,35.5C 89.2624,37.4044 88.2624,38.7377 86.5,39.5C 86.5,36.8333 86.5,34.1667 86.5,31.5 Z"/></g>
<g><path style="opacity:1" fill="#f7defd" d="M 56.5,36.5 C 56.3379,38.5273 56.5045,40.5273 57,42.5C 57.6708,43.2524 58.5041,43.5858 59.5,43.5C 59.5,44.1667 59.5,44.8333 59.5,45.5C 57.9826,45.4894 56.8159,44.8228 56,43.5C 55.3448,41.3716 54.5114,39.3716 53.5,37.5C 54.609,37.4431 55.609,37.1098 56.5,36.5 Z"/></g>
<g><path style="opacity:1" fill="#dff6f6" d="M 51.5,47.5 C 50.8333,47.5 50.1667,47.5 49.5,47.5C 44.0851,44.0784 38.0851,42.7451 31.5,43.5C 29.5,43.5 27.5,43.5 25.5,43.5C 31.48,42.3306 37.48,40.9973 43.5,39.5C 47.257,40.0519 47.257,41.0519 43.5,42.5C 45.7427,43.4742 48.076,43.8076 50.5,43.5C 50.4326,44.9587 50.7659,46.2921 51.5,47.5 Z"/></g>
<g><path style="opacity:1" fill="#a072cf" d="M 85.5,40.5 C 85.8333,40.5 86.1667,40.5 86.5,40.5C 86.2905,43.2651 84.9571,45.2651 82.5,46.5C 82.5,45.5 82.5,44.5 82.5,43.5C 83.8333,42.8333 84.8333,41.8333 85.5,40.5 Z"/></g>
<g><path style="opacity:1" fill="#974ed5" d="M 82.5,43.5 C 82.5,44.5 82.5,45.5 82.5,46.5C 82.5,47.1667 82.5,47.8333 82.5,48.5C 81.1779,48.67 80.0113,48.3366 79,47.5C 78.7679,48.7375 78.2679,49.7375 77.5,50.5C 77.5,49.5 77.5,48.5 77.5,47.5C 77.7751,45.2417 78.7751,44.9084 80.5,46.5C 81.1757,45.3984 81.8423,44.3984 82.5,43.5 Z"/></g>
<g><path style="opacity:1" fill="#21b1b6" d="M 31.5,43.5 C 38.0851,42.7451 44.0851,44.0784 49.5,47.5C 48.6236,47.3691 47.9569,47.7025 47.5,48.5C 48.9501,49.8498 49.6168,51.5165 49.5,53.5C 48.1779,53.33 47.0113,53.6634 46,54.5C 45.6667,56.5 45.3333,58.5 45,60.5C 41.6485,63.0408 39.8152,62.0408 39.5,57.5C 38.1667,57.5 36.8333,57.5 35.5,57.5C 35.5,58.8333 35.5,60.1667 35.5,61.5C 30.8862,56.7385 25.2196,54.7385 18.5,55.5C 22.2951,53.825 26.4618,52.825 31,52.5C 31.6172,51.5509 31.4506,50.7175 30.5,50C 27.8832,49.1785 25.2165,48.6785 22.5,48.5C 22.5,47.5 22.5,46.5 22.5,45.5C 26.0122,46.0545 29.0122,45.3878 31.5,43.5 Z"/></g>
<g><path style="opacity:1" fill="#b584d5" d="M 59.5,45.5 C 60.7894,47.248 62.2894,47.5814 64,46.5C 64.4643,47.0944 64.631,47.7611 64.5,48.5C 63.2921,49.2341 61.9587,49.5674 60.5,49.5C 60.1667,48.1667 59.8333,46.8333 59.5,45.5 Z"/></g>
<g><path style="opacity:1" fill="#f4dcfc" d="M 64.5,48.5 C 65.0114,50.1947 65.6781,51.8614 66.5,53.5C 68.2527,51.359 69.2527,52.0257 69.5,55.5C 68.5041,55.4142 67.6708,55.7476 67,56.5C 64.8169,54.0929 62.6503,51.7596 60.5,49.5C 61.9587,49.5674 63.2921,49.2341 64.5,48.5 Z"/></g>
<g><path style="opacity:1" fill="#9b40e9" d="M 59.5,43.5 C 61.3307,44.0522 62.9974,44.0522 64.5,43.5C 65.2304,45.3413 65.8971,47.1746 66.5,49C 70.4919,49.9614 74.1585,49.4614 77.5,47.5C 77.5,48.5 77.5,49.5 77.5,50.5C 77.5,51.1667 77.5,51.8333 77.5,52.5C 76.5041,52.5858 75.6708,52.2524 75,51.5C 74.5357,52.0944 74.369,52.7611 74.5,53.5C 73.8333,54.8333 73.1667,56.1667 72.5,57.5C 71.391,57.4431 70.391,57.1098 69.5,56.5C 69.5,56.1667 69.5,55.8333 69.5,55.5C 69.2527,52.0257 68.2527,51.359 66.5,53.5C 65.6781,51.8614 65.0114,50.1947 64.5,48.5C 64.631,47.7611 64.4643,47.0944 64,46.5C 62.2894,47.5814 60.7894,47.248 59.5,45.5C 59.5,44.8333 59.5,44.1667 59.5,43.5 Z"/></g>
<g><path style="opacity:1" fill="#34a7b4" d="M 25.5,43.5 C 27.5,43.5 29.5,43.5 31.5,43.5C 29.0122,45.3878 26.0122,46.0545 22.5,45.5C 22.5,46.5 22.5,47.5 22.5,48.5C 25.2165,48.6785 27.8832,49.1785 30.5,50C 31.4506,50.7175 31.6172,51.5509 31,52.5C 26.4618,52.825 22.2951,53.825 18.5,55.5C 15.151,56.259 12.3176,57.9256 10,60.5C 9.33333,59.1667 9.33333,57.8333 10,56.5C 13.6324,50.1322 18.7991,45.7988 25.5,43.5 Z"/></g>
<g><path style="opacity:1" fill="#b67edc" d="M 77.5,52.5 C 76.791,53.404 75.791,53.7373 74.5,53.5C 74.369,52.7611 74.5357,52.0944 75,51.5C 75.6708,52.2524 76.5041,52.5858 77.5,52.5 Z"/></g>
<g><path style="opacity:1" fill="#f4e0fa" d="M 82.5,48.5 C 81.8953,50.0257 80.7286,51.0257 79,51.5C 78.5065,53.1341 78.3398,54.8008 78.5,56.5C 77.5,56.5 76.5,56.5 75.5,56.5C 75.2598,61.0942 73.5931,61.7609 70.5,58.5C 71.4916,58.6716 72.1583,58.3382 72.5,57.5C 73.1667,56.1667 73.8333,54.8333 74.5,53.5C 75.791,53.7373 76.791,53.404 77.5,52.5C 77.5,51.8333 77.5,51.1667 77.5,50.5C 78.2679,49.7375 78.7679,48.7375 79,47.5C 80.0113,48.3366 81.1779,48.67 82.5,48.5 Z"/></g>
<g><path style="opacity:1" fill="#b376cb" d="M 69.5,56.5 C 70.391,57.1098 71.391,57.4431 72.5,57.5C 72.1583,58.3382 71.4916,58.6716 70.5,58.5C 69.6618,58.1583 69.3284,57.4916 69.5,56.5 Z"/></g>
<g><path style="opacity:1" fill="#26bab5" d="M 49.5,47.5 C 50.1667,47.5 50.8333,47.5 51.5,47.5C 56.5,52.1667 61.5,56.8333 66.5,61.5C 65.4062,62.5817 64.0729,63.2483 62.5,63.5C 60.159,62.217 57.659,61.217 55,60.5C 53.2856,61.0762 52.1189,62.2429 51.5,64C 52.4491,64.6172 53.2825,64.4506 54,63.5C 55.0674,64.1905 56.2341,64.6905 57.5,65C 57.0426,65.414 56.7093,65.914 56.5,66.5C 59.8333,67.1667 63.1667,67.8333 66.5,68.5C 65.7579,69.2868 64.9246,69.9535 64,70.5C 59.7257,69.549 55.2257,69.549 50.5,70.5C 52.5939,71.5176 54.5939,72.5176 56.5,73.5C 48.5548,73.0295 42.2214,69.6961 37.5,63.5C 36.5,63.1667 35.8333,62.5 35.5,61.5C 35.5,60.1667 35.5,58.8333 35.5,57.5C 36.8333,57.5 38.1667,57.5 39.5,57.5C 39.8152,62.0408 41.6485,63.0408 45,60.5C 45.3333,58.5 45.6667,56.5 46,54.5C 47.0113,53.6634 48.1779,53.33 49.5,53.5C 49.6168,51.5165 48.9501,49.8498 47.5,48.5C 47.9569,47.7025 48.6236,47.3691 49.5,47.5 Z"/></g>
<g><path style="opacity:1" fill="#2cc2b2" d="M 77.5,69.5 C 70.9876,72.9674 63.9876,74.3008 56.5,73.5C 54.5939,72.5176 52.5939,71.5176 50.5,70.5C 55.2257,69.549 59.7257,69.549 64,70.5C 64.9246,69.9535 65.7579,69.2868 66.5,68.5C 63.1667,67.8333 59.8333,67.1667 56.5,66.5C 56.7093,65.914 57.0426,65.414 57.5,65C 56.2341,64.6905 55.0674,64.1905 54,63.5C 53.2825,64.4506 52.4491,64.6172 51.5,64C 52.1189,62.2429 53.2856,61.0762 55,60.5C 57.659,61.217 60.159,62.217 62.5,63.5C 64.0729,63.2483 65.4062,62.5817 66.5,61.5C 74.0076,62.5083 80.5076,60.5083 86,55.5C 85.6647,58.2551 84.6647,60.9217 83,63.5C 80.9604,65.3702 79.1271,67.3702 77.5,69.5 Z"/></g>
<g><path style="opacity:1" fill="#e1fbf9" d="M 37.5,63.5 C 42.2214,69.6961 48.5548,73.0295 56.5,73.5C 63.9876,74.3008 70.9876,72.9674 77.5,69.5C 76.8592,70.4822 76.1925,71.4822 75.5,72.5C 66.5542,76.0517 57.2208,77.5517 47.5,77C 49.0441,76.7104 50.3774,76.0437 51.5,75C 47.2959,74.2027 43.6292,72.3694 40.5,69.5C 38.9617,67.7567 37.9617,65.7567 37.5,63.5 Z"/></g>
</svg>
